<?xml version="1.0" standalone="no"?>
<!DOCTYPE svg PUBLIC "-//W3C//DTD SVG 20010904//EN"
 "http://www.w3.org/TR/2001/REC-SVG-20010904/DTD/svg10.dtd">
<svg version="1.0" xmlns="http://www.w3.org/2000/svg"
 width="512.000000pt" height="512.000000pt" viewBox="0 0 512.000000 512.000000"
 preserveAspectRatio="xMidYMid meet">
<metadata>
Created by potrace 1.14, written by Peter Selinger 2001-2017
</metadata>
<g transform="translate(0.000000,512.000000) scale(0.100000,-0.100000)"
fill="#000000" stroke="none">
<path d="M3668 4162 c-489 -273 -888 -499 -888 -503 0 -4 144 -89 320 -189
176 -101 323 -186 325 -190 6 -10 -201 -323 -318 -480 -119 -159 -299 -343
-375 -384 -101 -54 -163 -33 -452 148 -357 223 -595 308 -825 293 -348 -23
-664 -242 -1055 -732 -106 -133 -244 -322 -338 -462 l-62 -92 2 -618 3 -617
59 99 c256 432 559 895 761 1163 235 312 414 493 562 568 66 34 77 36 136 32
82 -7 199 -61 397 -185 367 -229 490 -277 725 -277 164 -1 235 16 375 91 124
66 220 141 355 277 153 155 267 302 467 601 88 132 163 241 166 242 4 1 144
-76 312 -172 l305 -173 3 67 c2 38 -9 495 -23 1017 -14 522 -25 955 -25 962 0
6 -6 12 -12 11 -7 0 -412 -224 -900 -497z"/>
<path d="M4170 2470 c-133 -35 -233 -92 -335 -195 -104 -103 -161 -203 -195
-339 -42 -168 -20 -351 62 -516 60 -120 188 -248 308 -308 113 -56 219 -82
337 -82 125 0 218 22 333 78 80 39 109 60 186 136 76 77 97 106 136 186 107
219 106 450 -4 670 -34 68 -60 103 -133 175 -103 104 -203 161 -339 195 -104
26 -253 26 -356 0z m345 -212 c159 -52 276 -169 333 -332 34 -99 34 -233 0
-332 -77 -222 -265 -356 -498 -356 -233 0 -421 134 -498 356 -46 134 -29 308
44 432 124 212 384 309 619 232z"/>
<path d="M1420 1920 c-133 -35 -233 -92 -335 -195 -73 -72 -99 -107 -133 -175
-111 -222 -111 -458 0 -680 60 -120 188 -248 308 -308 113 -56 219 -82 337
-82 125 0 218 22 333 78 80 39 109 60 186 136 76 77 97 106 136 186 107 219
106 450 -4 670 -34 68 -60 103 -133 175 -103 104 -203 161 -339 195 -104 26
-253 26 -356 0z m345 -212 c159 -52 276 -169 333 -332 34 -99 34 -233 0 -332
-77 -222 -265 -356 -498 -356 -233 0 -421 134 -498 356 -46 134 -29 308 44
432 124 212 384 309 619 232z"/>
</g>
</svg>
